<?xml version="1.0" encoding="UTF-8"?>
<svg xmlns="http://www.w3.org/2000/svg" xmlns:xlink="http://www.w3.org/1999/xlink" width="600pt" height="600pt" viewBox="0 0 600 600">
<path fill-rule="nonzero" fill="rgb(9.638977%, 8.990479%, 8.403015%)" fill-opacity="1" d="M 300 584.347656 C 296.078125 584.347656 292.390625 582.820312 289.617188 580.046875 L 19.953125 310.382812 C 14.230469 304.65625 14.230469 295.34375 19.953125 289.617188 L 289.617188 19.953125 C 292.390625 17.179688 296.078125 15.652344 300 15.652344 C 303.921875 15.652344 307.609375 17.179688 310.382812 19.953125 L 580.046875 289.617188 C 585.769531 295.34375 585.769531 304.65625 580.046875 310.382812 L 310.382812 580.046875 C 307.609375 582.820312 303.921875 584.347656 300 584.347656 "/>
<path fill-rule="nonzero" fill="rgb(100%, 100%, 100%)" fill-opacity="1" d="M 300 10.652344 C 294.964844 10.652344 289.925781 12.574219 286.082031 16.417969 L 16.417969 286.082031 C 8.730469 293.769531 8.730469 306.230469 16.417969 313.917969 L 286.082031 583.582031 C 289.925781 587.425781 294.964844 589.347656 300 589.347656 C 305.035156 589.347656 310.074219 587.425781 313.917969 583.582031 L 583.582031 313.917969 C 591.269531 306.230469 591.269531 293.769531 583.582031 286.082031 L 313.917969 16.417969 C 310.074219 12.574219 305.035156 10.652344 300 10.652344 M 300 20.652344 C 302.585938 20.652344 305.015625 21.660156 306.847656 23.488281 L 576.511719 293.15625 C 578.339844 294.984375 579.347656 297.414062 579.347656 300 C 579.347656 302.585938 578.339844 305.015625 576.511719 306.84375 L 306.847656 576.511719 C 305.015625 578.339844 302.585938 579.347656 300 579.347656 C 297.414062 579.347656 294.984375 578.339844 293.152344 576.511719 L 23.488281 306.84375 C 21.660156 305.015625 20.652344 302.585938 20.652344 300 C 20.652344 297.414062 21.660156 294.984375 23.488281 293.15625 L 293.152344 23.488281 C 294.984375 21.660156 297.414062 20.652344 300 20.652344 "/>
<path fill-rule="nonzero" fill="rgb(9.638977%, 8.990479%, 8.403015%)" fill-opacity="1" d="M 342.441406 166.320312 C 342.441406 189.757812 323.4375 208.757812 300 208.757812 C 276.5625 208.757812 257.558594 189.757812 257.558594 166.320312 C 257.558594 142.882812 276.5625 123.882812 300 123.882812 C 323.4375 123.882812 342.441406 142.882812 342.441406 166.320312 "/>
<path fill="none" stroke-width="15" stroke-linecap="round" stroke-linejoin="miter" stroke="rgb(100%, 100%, 100%)" stroke-opacity="1" stroke-dasharray="14.81 29.62" stroke-miterlimit="10" d="M 0.00190625 0.0000875 C 0.00190625 -23.437413 -19.002 -42.437413 -42.4395 -42.437413 C -65.877 -42.437413 -84.880906 -23.437413 -84.880906 0.0000875 C -84.880906 23.437587 -65.877 42.437587 -42.4395 42.437587 C -19.002 42.437587 0.00190625 23.437587 0.00190625 0.0000875 Z M 0.00190625 0.0000875 " transform="matrix(1, 0, 0, -1, 342.4395, 166.3204)"/>
<path fill-rule="nonzero" fill="rgb(9.638977%, 8.990479%, 8.403015%)" fill-opacity="1" d="M 240.40625 434.519531 L 290.5 242.554688 L 309.5 242.554688 L 359.59375 434.519531 C 359.59375 434.519531 343.515625 446.621094 306.140625 446.621094 C 268.769531 446.621094 240.40625 434.519531 240.40625 434.519531 "/>
<path fill="none" stroke-width="15" stroke-linecap="round" stroke-linejoin="round" stroke="rgb(100%, 100%, 100%)" stroke-opacity="1" stroke-miterlimit="4" d="M 0.00000625 0.00104375 C -4.519525 1.508856 -7.03515 2.579169 -7.03515 2.579169 L -5.144525 9.836981 " transform="matrix(1, 0, 0, -1, 247.4414, 437.0987)"/>
<path fill="none" stroke-width="15" stroke-linecap="round" stroke-linejoin="round" stroke="rgb(100%, 100%, 100%)" stroke-opacity="1" stroke-dasharray="16.672 33.344" stroke-miterlimit="4" d="M 0.00095 0.00110625 L 33.680638 129.051888 " transform="matrix(1, 0, 0, -1, 250.7178, 394.9972)"/>
<path fill="none" stroke-width="15" stroke-linecap="round" stroke-linejoin="round" stroke="rgb(100%, 100%, 100%)" stroke-opacity="1" stroke-miterlimit="4" d="M -0.00093125 0.0001 L 1.8936 7.257912 L 9.3936 7.257912 " transform="matrix(1, 0, 0, -1, 288.6064, 249.8126)"/>
<path fill="none" stroke-width="15" stroke-linecap="round" stroke-linejoin="round" stroke="rgb(100%, 100%, 100%)" stroke-opacity="1" stroke-miterlimit="4" d="M 0 0.0011125 L 7.5 0.0011125 L 9.394531 -7.2567 " transform="matrix(1, 0, 0, -1, 302, 242.5558)"/>
<path fill="none" stroke-width="15" stroke-linecap="round" stroke-linejoin="round" stroke="rgb(100%, 100%, 100%)" stroke-opacity="1" stroke-dasharray="16.672 33.344" stroke-miterlimit="4" d="M -0.001 -0.001825 L 33.678688 -129.052606 " transform="matrix(1, 0, 0, -1, 319.8135, 282.0763)"/>
<path fill="none" stroke-width="15" stroke-linecap="round" stroke-linejoin="round" stroke="rgb(100%, 100%, 100%)" stroke-opacity="1" stroke-miterlimit="4" d="M 0.001025 -0.00091875 L 1.895556 -7.258731 C 1.895556 -7.258731 -0.213819 -8.840762 -4.67085 -10.8642 " transform="matrix(1, 0, 0, -1, 357.7021, 427.2608)"/>
<path fill="none" stroke-width="15" stroke-linecap="round" stroke-linejoin="round" stroke="rgb(100%, 100%, 100%)" stroke-opacity="1" stroke-dasharray="13.461 26.922" stroke-miterlimit="4" d="M 0.00094375 -0.0018375 C -6.073275 -0.861212 -13.061556 -1.408087 -21.010775 -1.408087 C -39.112338 -1.408087 -55.104525 1.431756 -66.780306 4.357538 " transform="matrix(1, 0, 0, -1, 327.1514, 445.2091)"/>
</svg>
