<?xml version="1.0" encoding="UTF-8"?>
<svg xmlns="http://www.w3.org/2000/svg" xmlns:xlink="http://www.w3.org/1999/xlink" width="600pt" height="600pt" viewBox="0 0 600 600">
<path fill-rule="nonzero" fill="rgb(12.478638%, 15.638733%, 18.716431%)" fill-opacity="1" d="M 300 572 C 227.347656 572 159.039062 543.707031 107.667969 492.332031 C 56.292969 440.960938 28 372.652344 28 300 C 28 227.347656 56.292969 159.039062 107.667969 107.667969 C 159.039062 56.292969 227.347656 28 300 28 C 372.652344 28 440.960938 56.292969 492.332031 107.667969 C 543.707031 159.039062 572 227.347656 572 300 C 572 372.652344 543.707031 440.960938 492.332031 492.332031 C 440.960938 543.707031 372.652344 572 300 572 "/>
<path fill-rule="nonzero" fill="rgb(100%, 100%, 100%)" fill-opacity="1" d="M 300 20 C 262.207031 20 225.535156 27.40625 191.007812 42.011719 C 157.660156 56.113281 127.71875 76.300781 102.011719 102.011719 C 76.300781 127.71875 56.113281 157.660156 42.011719 191.007812 C 27.40625 225.535156 20 262.207031 20 300 C 20 337.792969 27.40625 374.464844 42.011719 408.992188 C 56.113281 442.339844 76.300781 472.28125 102.011719 497.988281 C 127.71875 523.699219 157.660156 543.886719 191.007812 557.988281 C 225.535156 572.59375 262.207031 580 300 580 C 337.792969 580 374.464844 572.59375 408.992188 557.988281 C 442.339844 543.886719 472.28125 523.699219 497.988281 497.988281 C 523.699219 472.28125 543.886719 442.339844 557.988281 408.992188 C 572.59375 374.464844 580 337.792969 580 300 C 580 262.207031 572.59375 225.535156 557.988281 191.007812 C 543.886719 157.660156 523.699219 127.71875 497.988281 102.011719 C 472.28125 76.300781 442.339844 56.113281 408.992188 42.011719 C 374.464844 27.40625 337.792969 20 300 20 M 300 36 C 445.804688 36 564 154.195312 564 300 C 564 445.804688 445.804688 564 300 564 C 154.195312 564 36 445.804688 36 300 C 36 154.195312 154.195312 36 300 36 "/>
<path fill-rule="nonzero" fill="rgb(100%, 100%, 100%)" fill-opacity="1" d="M 345.832031 445.785156 C 336.960938 445.785156 328.269531 444.984375 319.832031 443.464844 C 325.890625 440.683594 331.75 437.523438 337.371094 434.023438 C 339.15625 432.914062 340.910156 431.753906 342.644531 430.570312 C 415.734375 429.367188 474.609375 371.378906 474.609375 300.003906 C 474.609375 228.621094 415.730469 170.628906 342.636719 169.429688 C 340.898438 168.246094 339.144531 167.089844 337.359375 165.972656 C 331.738281 162.472656 325.890625 159.316406 319.832031 156.535156 C 328.269531 155.015625 336.960938 154.214844 345.832031 154.214844 C 426.210938 154.214844 491.609375 219.613281 491.609375 300.003906 C 491.609375 380.386719 426.210938 445.785156 345.832031 445.785156 M 300 438.40625 C 293.582031 440.546875 286.949219 442.234375 280.171875 443.464844 C 271.730469 444.984375 263.050781 445.785156 254.179688 445.785156 C 173.789062 445.785156 108.390625 380.386719 108.390625 300.003906 C 108.390625 219.613281 173.789062 154.214844 254.179688 154.214844 C 263.050781 154.214844 271.730469 155.015625 280.171875 156.535156 C 286.949219 157.765625 293.582031 159.457031 300 161.59375 C 306.019531 163.585938 311.871094 165.972656 317.511719 168.707031 C 366.261719 192.316406 399.960938 242.296875 399.960938 300.003906 C 399.960938 357.707031 366.261719 407.683594 317.511719 431.296875 C 311.871094 434.023438 306.019531 436.414062 300 438.40625 M 345.832031 142.214844 C 329.898438 142.214844 314.519531 144.585938 300.011719 149.003906 C 285.5 144.585938 270.109375 142.214844 254.179688 142.214844 C 167.171875 142.214844 96.390625 212.996094 96.390625 300.003906 C 96.390625 387.003906 167.171875 457.785156 254.179688 457.785156 C 270.109375 457.785156 285.5 455.414062 300.011719 450.996094 C 314.519531 455.414062 329.898438 457.785156 345.832031 457.785156 C 432.832031 457.785156 503.609375 387.003906 503.609375 300.003906 C 503.609375 212.996094 432.832031 142.214844 345.832031 142.214844 "/>
</svg>
