<?xml version="1.0" encoding="UTF-8"?>
<svg xmlns="http://www.w3.org/2000/svg" xmlns:xlink="http://www.w3.org/1999/xlink" width="300pt" height="300pt" viewBox="0 0 300 300">
<path fill-rule="nonzero" fill="rgb(13.729858%, 12.159729%, 12.548828%)" fill-opacity="1" d="M 156.332031 289.527344 L 143.667969 289.527344 L 143.667969 145.527344 C 143.667969 143.132812 145.605469 141.195312 148 141.195312 L 152 141.195312 C 154.394531 141.195312 156.332031 143.132812 156.332031 145.527344 Z M 156.332031 289.527344 "/>
<path fill-rule="nonzero" fill="rgb(13.729858%, 12.159729%, 12.548828%)" fill-opacity="1" d="M 150.550781 90.945312 L 157.507812 136.222656 C 157.546875 136.496094 157.78125 136.695312 158.058594 136.695312 L 169.222656 136.695312 C 169.5625 136.695312 169.824219 136.390625 169.773438 136.054688 L 150.550781 10.945312 C 150.453125 10.3125 149.546875 10.3125 149.449219 10.945312 L 130.230469 136.054688 C 130.175781 136.390625 130.4375 136.695312 130.777344 136.695312 L 141.945312 136.695312 C 142.21875 136.695312 142.449219 136.496094 142.492188 136.222656 L 149.449219 90.945312 C 149.546875 90.3125 150.453125 90.3125 150.550781 90.945312 "/>
<path fill-rule="nonzero" fill="rgb(13.729858%, 12.159729%, 12.548828%)" fill-opacity="1" d="M 105.667969 283.527344 L 93 283.527344 L 93 164.027344 C 93 161.632812 94.941406 159.695312 97.332031 159.695312 L 101.332031 159.695312 C 103.726562 159.695312 105.667969 161.632812 105.667969 164.027344 Z M 105.667969 283.527344 "/>
<path fill-rule="nonzero" fill="rgb(13.729858%, 12.159729%, 12.548828%)" fill-opacity="1" d="M 99.882812 109.445312 L 106.839844 154.722656 C 106.882812 154.996094 107.113281 155.195312 107.390625 155.195312 L 118.554688 155.195312 C 118.894531 155.195312 119.15625 154.890625 119.105469 154.554688 L 99.882812 29.445312 C 99.785156 28.8125 98.878906 28.8125 98.78125 29.445312 L 79.5625 154.554688 C 79.511719 154.890625 79.769531 155.195312 80.113281 155.195312 L 91.277344 155.195312 C 91.550781 155.195312 91.785156 154.996094 91.824219 154.722656 L 98.78125 109.445312 C 98.878906 108.8125 99.785156 108.8125 99.882812 109.445312 "/>
<path fill-rule="nonzero" fill="rgb(13.729858%, 12.159729%, 12.548828%)" fill-opacity="1" d="M 207 283.527344 L 194.332031 283.527344 L 194.332031 164.027344 C 194.332031 161.632812 196.273438 159.695312 198.667969 159.695312 L 202.667969 159.695312 C 205.058594 159.695312 207 161.632812 207 164.027344 Z M 207 283.527344 "/>
<path fill-rule="nonzero" fill="rgb(13.729858%, 12.159729%, 12.548828%)" fill-opacity="1" d="M 201.21875 109.445312 L 208.171875 154.722656 C 208.214844 154.996094 208.449219 155.195312 208.722656 155.195312 L 219.886719 155.195312 C 220.230469 155.195312 220.488281 154.890625 220.4375 154.554688 L 201.21875 29.445312 C 201.121094 28.8125 200.210938 28.8125 200.117188 29.445312 L 180.894531 154.554688 C 180.84375 154.890625 181.105469 155.195312 181.445312 155.195312 L 192.609375 155.195312 C 192.886719 155.195312 193.117188 154.996094 193.160156 154.722656 L 200.117188 109.445312 C 200.210938 108.8125 201.121094 108.8125 201.21875 109.445312 "/>
</svg>
